<svg viewBox="0 0 92 62.0029" xmlns="http://www.w3.org/2000/svg" fill="none">
	
	<path id="Ellipse 31" d="M51.2914 10.4939C49.2722 8.46627 47.0035 6.77662 44.4852 5.42494C41.9671 4.07336 39.3079 3.11789 36.5076 2.55855C33.7074 1.99922 30.8866 1.86006 28.0453 2.14108C25.2039 2.4221 22.4643 3.11121 19.8264 4.20841C17.1884 5.30567 14.7658 6.76382 12.5585 8.58288C10.351 10.4021 8.454 12.5039 6.8674 14.8883C5.28068 17.273 4.07277 19.8376 3.24369 22.5821C2.41456 25.3268 2 28.1332 2 31.0015C2 33.8697 2.41456 36.6761 3.24369 39.4208C4.07277 42.1654 5.28068 44.73 6.8674 47.1146C8.454 49.499 10.351 51.6008 12.5585 53.4201C14.7658 55.2391 17.1884 56.6973 19.8265 57.7945C22.4643 58.8917 25.2039 59.5808 28.0453 59.8618C30.8866 60.1429 33.7073 60.0037 36.5076 59.4444C39.3079 58.885 41.9671 57.9296 44.4852 56.578C47.0035 55.2263 49.2722 53.5367 51.2914 51.509L52.7086 52.9203C50.5497 55.0882 48.1238 56.8949 45.4311 58.3402C42.7381 59.7856 39.8942 60.8074 36.8993 61.4056C33.9043 62.0039 30.8874 62.1527 27.8484 61.8521C24.8095 61.5516 21.8795 60.8146 19.0584 59.6411C16.2374 58.4678 13.6468 56.9086 11.2866 54.9635C8.92651 53.0185 6.89843 50.7715 5.20233 48.2225C3.50633 45.6737 2.21527 42.9326 1.32914 39.9992C0.443047 37.0659 6.55651e-07 34.0667 0 31.0015C-1.19209e-07 27.9363 0.443045 24.937 1.32914 22.0038C2.21526 19.0704 3.50633 16.3292 5.20233 13.7804C6.89845 11.2314 8.92653 8.98438 11.2866 7.03945C13.6468 5.09437 16.2374 3.53515 19.0583 2.36178C21.8795 1.18835 24.8095 0.451351 27.8484 0.150792C30.8874 -0.149771 33.9043 -0.000939131 36.8993 0.597289C39.8942 1.1955 42.7381 2.21732 45.4311 3.66273C48.1238 5.10806 50.5497 6.9147 52.7086 9.08264L51.2914 10.4939ZM52.6803 9.08258L52.7086 9.08263C53.1037 9.47944 53.1024 10.1017 52.7056 10.4968C52.3088 10.892 51.6866 10.8907 51.2914 10.4939L51.2915 10.4656L52.6803 9.08258ZM51.2915 51.5373L51.2914 51.509C51.6866 51.1122 52.3088 51.1109 52.7056 51.5061C53.1024 51.9012 53.1037 52.5235 52.7086 52.9203L52.6803 52.9203L51.2915 51.5373Z" fill="currentColor" fill-rule="nonzero" />
	<g id="fi:arrow-right" clip-path="url(#clipPath_3)" customFrame="url(#clipPath_3)">
	<rect id="fi:arrow-right" width="70.000000" height="24.000000" x="0.000000" y="0.000000" transform="matrix(-1,-1.22465e-16,1.22465e-16,-1,92,43.0015)" />
	<path  d="M0 0L60 0" stroke="currentColor" stroke-linecap="round" stroke-linejoin="round" stroke-width="2.000000" transform="matrix(-1,1.22465e-16,-1.22465e-16,-1,87,31.0015)" />
	<path d="M0 0L7 7L0 14" fill-rule="nonzero" stroke="currentColor" stroke-linecap="round" stroke-linejoin="round" stroke-width="2.000000" transform="matrix(-1,-1.22465e-16,1.22465e-16,-1,34,38.0015)" />
	</g>
</svg>
