<svg viewBox="0 0 80 35.2448" xmlns="http://www.w3.org/2000/svg" xmlns:xlink="http://www.w3.org/1999/xlink" fill="none" customFrame="#000000">
	<g id="logo">
		<path id="Dignity" d="M57.6358 5.74036L57.6358 8.42804L59.8258 8.42804L59.859 17.6524C59.859 18.7585 59.9696 19.6875 60.1908 20.4397C60.8102 22.4526 62.4803 23.4702 65.2012 23.4923L66.3957 23.4923L65.7653 20.6719L65.3007 20.6719C65.0574 20.6719 64.8141 20.6498 64.5707 20.6056C63.2877 20.4286 62.6462 19.5548 62.6462 17.9842L62.6462 8.46122L64.7698 8.46122L64.7698 5.74036L62.6462 5.74036L62.6462 0L59.8258 0L59.8258 5.74036L57.6358 5.74036ZM-0 0.26546L0 23.4923L2.88676 23.4923L2.88676 0.26546L-0 0.26546ZM4.54584 20.6387L4.54584 23.4923L5.40854 23.4923C10.4742 23.2932 13.0071 21.1143 13.0071 16.9556L13.0071 6.80216C13.0071 5.62976 12.7637 4.60114 12.2771 3.7163C11.0604 1.41574 8.48334 0.26546 4.54584 0.26546L4.54584 3.11904C5.38642 3.11904 6.11642 3.17434 6.7358 3.28494C8.97 3.68312 10.0871 4.85552 10.0871 6.80216L10.0871 16.9556C10.0871 18.0838 9.7553 18.9576 9.09166 19.5769C8.31744 20.2848 6.80216 20.6387 4.54584 20.6387ZM16.7897 1.62588C16.1482 1.91346 15.8275 2.40012 15.8275 3.08586C15.8275 3.30706 15.8717 3.52828 15.9602 3.74948C16.2699 4.36886 16.7676 4.67856 17.4533 4.67856C17.6746 4.67856 17.8958 4.63432 18.117 4.54584C18.7364 4.23614 19.046 3.74948 19.046 3.08586C19.046 2.86464 19.0018 2.64344 18.9133 2.42224C18.6036 1.80284 18.117 1.49316 17.4533 1.49316C17.2321 1.49316 17.0109 1.5374 16.7897 1.62588ZM53.2891 1.62588C52.6476 1.91346 52.3269 2.40012 52.3269 3.08586C52.3269 3.30706 52.3711 3.52828 52.4596 3.74948C52.7693 4.36886 53.267 4.67856 53.9527 4.67856C54.1739 4.67856 54.3951 4.63432 54.6164 4.54584C55.2357 4.23614 55.5454 3.74948 55.5454 3.08586C55.5454 2.86464 55.5012 2.64344 55.4127 2.42224C55.103 1.80284 54.6164 1.49316 53.9527 1.49316C53.7315 1.49316 53.5103 1.5374 53.2891 1.62588ZM21.4019 29.6309L22.0987 27.0427L28.3368 27.0427C29.5756 26.9985 30.4825 26.5118 31.0577 25.5828C31.2346 25.2731 31.3231 24.9965 31.3231 24.7532L31.3231 22.3642C30.4162 23.0057 29.5092 23.3485 28.6022 23.3928L28.6022 20.8378C29.5756 20.8378 30.3498 20.4286 30.9249 19.6101C31.1904 19.2341 31.3231 18.858 31.3231 18.482L31.3231 10.3526C31.3231 9.51196 30.8586 8.84834 29.9295 8.36168C29.4871 8.14046 29.0447 8.02986 28.6022 8.02986L28.6022 5.40854C29.5977 5.40854 30.4715 5.71824 31.2236 6.33762Q31.2899 6.3708 31.3231 6.40398L31.3231 5.40854L34.0108 5.40854L34.0108 24.7532C34.0108 25.7044 33.5794 26.6888 32.7167 27.7063C31.6328 28.9672 30.2945 29.6087 28.7018 29.6309L21.4019 29.6309ZM21.7337 18.5151L21.7337 10.2198C21.7558 9.18014 22.2204 8.16258 23.1273 7.16716C24.2113 6.01686 25.5496 5.43066 27.1423 5.40854L27.1423 8.02986C26.0583 8.02986 25.2399 8.4944 24.6869 9.42348C24.4878 9.75528 24.3882 10.0539 24.3882 10.3194L24.3882 18.482C24.3882 19.1456 24.7311 19.7318 25.4168 20.2406C25.9256 20.5945 26.5008 20.7715 27.1423 20.7715L27.1423 23.3928C25.1072 23.3707 23.5587 22.508 22.4969 20.8046C21.9881 19.9862 21.7337 19.223 21.7337 18.5151ZM36.5657 10.3857L36.5657 23.4923L39.3862 23.4923L39.3862 10.7175C39.3862 10.3194 39.5078 9.93226 39.7511 9.5562C40.3484 8.67136 41.2111 8.22896 42.3393 8.22896L42.3393 5.4749C40.6139 5.4749 39.1649 6.07218 37.9925 7.2667C37.0413 8.28426 36.5657 9.32394 36.5657 10.3857ZM43.7993 5.4749L43.7993 8.22896C44.5071 8.22896 45.1376 8.45016 45.6906 8.89258C46.3763 9.42348 46.7192 10.0318 46.7192 10.7175L46.7192 23.4923L49.5396 23.4923L49.5396 10.3857C49.5396 9.63362 49.2299 8.82622 48.6105 7.9635C47.4603 6.30444 45.8565 5.4749 43.7993 5.4749ZM69.6806 5.54126L66.7275 5.54126L71.7379 19.5438L68.4861 29.7968L71.3065 29.7968L74.7242 19.5769L69.6806 5.54126ZM77.0801 5.54126L74.0606 13.2393L75.2883 17.1215L75.5869 17.1215L80 5.54126L77.0801 5.54126ZM16.0597 6.0058L16.0597 23.4923L18.847 23.4923L18.847 6.0058L16.0597 6.0058ZM52.5591 6.0058L52.5591 23.4923L55.3463 23.4923L55.3463 6.0058L52.5591 6.0058Z" fill="rgb(17,17,17)" fill-rule="evenodd" />
		<path id="Codes" d="M52.4074 24.9088L52.3929 35.1722L53.6559 35.1722L53.6559 24.9088L52.4074 24.9088ZM61.4078 29.5397C61.4078 28.659 61.8095 28.0057 62.6127 27.5799C62.9999 27.3767 63.387 27.2751 63.7741 27.2751L63.7741 28.4074C63.3289 28.4074 62.9853 28.5912 62.7434 28.959C62.6176 29.1429 62.5547 29.3364 62.5547 29.5397C62.5547 29.8494 62.7966 30.101 63.2805 30.2946C63.6483 30.4494 64.3596 30.6526 65.4145 30.9043C66.0726 31.0397 66.542 31.364 66.8226 31.8769C66.9678 32.1479 67.0404 32.4527 67.0404 32.7914C67.0404 33.7205 66.6678 34.4076 65.9226 34.8528C65.4871 35.1141 64.9887 35.2448 64.4273 35.2448L64.4273 34.098C64.8725 34.098 65.2451 33.9431 65.5451 33.6334C65.758 33.4108 65.8645 33.1495 65.8645 32.8495C65.8645 32.4624 65.4822 32.1527 64.7177 31.9204C64.5241 31.8624 64.2144 31.7801 63.7886 31.6736C63.3337 31.5672 63.0047 31.4801 62.8015 31.4123C62.0659 31.122 61.6208 30.6817 61.4659 30.0913C61.4272 29.9171 61.4078 29.7332 61.4078 29.5397ZM64.4128 28.4219L64.4128 27.2751C65.2451 27.2751 65.9177 27.5848 66.4307 28.2041C66.75 28.6009 66.9097 29.0171 66.9097 29.4526L65.7629 29.6413C65.7629 29.109 65.4725 28.7364 64.8919 28.5235C64.7177 28.4558 64.558 28.4219 64.4128 28.4219ZM35.3066 33.0237C35.3066 33.5366 35.505 34.006 35.9018 34.4318C36.3664 34.9254 36.9809 35.1722 37.7455 35.1722L37.7455 34.0109Q37.2331 34.0109 36.913 33.7628Q36.7433 33.6313 36.6277 33.4302C36.5502 33.2947 36.5115 33.1592 36.5115 33.0237L36.5115 29.4961Q36.5115 29.382 36.5405 29.2757L36.5406 29.2754Q36.6294 28.9494 36.9906 28.6977C37.2132 28.5525 37.4648 28.48 37.7455 28.48L37.7455 27.3186C36.8164 27.3186 36.1196 27.6815 35.655 28.4074C35.4228 28.7654 35.3066 29.1187 35.3066 29.4671L35.3066 33.0237ZM38.3987 28.4945C38.8729 28.4945 39.202 28.6977 39.3859 29.1042C39.4536 29.259 39.4923 29.4187 39.502 29.5832L39.502 29.9316L40.6343 29.4961C40.6343 28.7896 40.344 28.2138 39.7633 27.7686C39.3568 27.4686 38.902 27.3186 38.3987 27.3186L38.3987 28.4945ZM54.8172 33.0237L54.8172 29.4235C54.8269 28.9784 55.0398 28.538 55.456 28.1025C55.9592 27.5896 56.5689 27.3283 57.2851 27.3186L57.2851 28.4654C56.8205 28.4654 56.4576 28.6687 56.1963 29.0751C56.0899 29.2493 56.0366 29.409 56.0366 29.5542L56.0366 30.5413L59.2884 30.5413L59.2884 29.5542C59.2884 29.1187 59.0658 28.7993 58.6206 28.5961C58.4174 28.4993 58.2093 28.4509 57.9964 28.4509L57.9964 27.3186C58.6642 27.3186 59.2594 27.5557 59.782 28.0299C60.2175 28.4461 60.4401 28.9058 60.4497 29.409L60.4497 31.7172L56.0366 31.7172L56.0366 33.0237C56.0366 33.2947 56.1915 33.5463 56.5012 33.7786C56.7528 33.9528 57.0189 34.0399 57.2996 34.0399L57.2996 35.1722C56.4189 35.1722 55.7269 34.8141 55.2237 34.098C54.9527 33.7205 54.8172 33.3624 54.8172 33.0237ZM41.7231 29.4381L41.7231 33.0237C41.7231 33.3528 41.844 33.7012 42.086 34.0689C42.5892 34.8141 43.3006 35.1867 44.22 35.1867L44.22 34.0109C43.9199 34.0109 43.6538 33.9238 43.4215 33.7496C43.0925 33.4979 42.928 33.1931 42.928 32.835L42.928 29.6413C42.928 29.4961 42.9618 29.351 43.0296 29.2058C43.2522 28.7316 43.649 28.4945 44.22 28.4945L44.22 27.3186C43.4651 27.3186 42.836 27.5799 42.3328 28.1025Q41.7555 28.721 41.7248 29.3656L41.7247 29.3674Q41.7231 29.4027 41.7231 29.4381ZM44.8442 34.0109L44.8442 35.1867C45.57 35.177 46.17 34.9157 46.6443 34.4028C47.0507 33.9576 47.254 33.4979 47.254 33.0237L47.254 29.4381C47.254 29.109 47.133 28.7654 46.891 28.4074C46.4072 27.6815 45.72 27.3186 44.8297 27.3186L44.8297 28.4945C45.1006 28.4945 45.3426 28.5622 45.5555 28.6977C45.8942 28.93 46.0636 29.2445 46.0636 29.6413L46.0636 32.864C46.0636 33.0092 46.0249 33.1592 45.9475 33.314C45.7249 33.7786 45.3571 34.0109 44.8442 34.0109ZM48.2411 29.4381L48.2411 33.0237C48.2411 33.3431 48.3572 33.6866 48.5895 34.0544C49.0637 34.7996 49.7315 35.1722 50.5928 35.1722L51.6961 35.1722L51.6961 33.9963L50.5783 33.9963C50.3654 33.9963 50.1573 33.9286 49.9541 33.7931C49.6057 33.5705 49.4315 33.3044 49.4315 32.9947L49.4315 29.5106C49.4315 29.3655 49.4847 29.2106 49.5912 29.0461C49.8428 28.688 50.167 28.509 50.5638 28.509L51.6961 28.509L51.6961 27.3331L50.5493 27.3331C49.9396 27.3331 49.4073 27.5509 48.9524 27.9864C48.4879 28.4316 48.2508 28.9155 48.2411 29.4381ZM38.3987 35.1867C39.0858 35.1964 39.6859 34.9351 40.1988 34.4028C40.6053 33.9673 40.8085 33.4931 40.8085 32.9802L39.6762 32.5592L39.6762 32.8495L39.6617 32.8785C39.6133 33.4205 39.3423 33.7737 38.8487 33.9383C38.7036 33.9867 38.5536 34.0109 38.3987 34.0109L38.3987 35.1867ZM61.3353 33.1108L62.4821 32.8931C62.4821 33.3286 62.7095 33.6721 63.1644 33.9238C63.387 34.0302 63.5999 34.0883 63.8031 34.098L63.8031 35.2448C62.8644 35.2448 62.1627 34.9061 61.6982 34.2286C61.4562 33.8705 61.3353 33.4979 61.3353 33.1108ZM57.9964 35.1722L57.9964 34.0254C58.5771 34.0254 59.0126 33.7737 59.3029 33.2705C59.361 33.164 59.4045 33.0624 59.4336 32.9656L60.4643 33.3431C60.29 34.0109 59.8933 34.5141 59.2739 34.8528C58.8771 35.0657 58.4513 35.1722 57.9964 35.1722Z" fill="rgb(17,17,17)" fill-rule="evenodd" />
	</g>
</svg>
