<svg viewBox="0 0 110 110" xmlns="http://www.w3.org/2000/svg" fill="none" customFrame="#000000">

	<rect id="handshake" width="110.000000" height="110.000000" x="0.000000" y="0.000000" fill="rgb(31,30,30)" />
	<g id="handshake" clip-path="url(#clipPath_2)" customFrame="url(#clipPath_2)">
		<rect id="handshake" width="24.000000" height="24.000000" x="43.000000" y="43.000000" />
		<path id="Vector" d="M59.48 53.4098C59.09 53.7998 58.44 53.7998 58.05 53.4098L53.58 48.9498L46.53 55.9898L45.87 55.3598C45.3082 54.7973 44.9927 54.0348 44.9927 53.2398C44.9927 52.4448 45.3082 51.6823 45.87 51.1198L50.11 46.8798C50.6725 46.318 51.435 46.0024 52.23 46.0024C53.025 46.0024 53.7875 46.318 54.35 46.8798L59.48 51.9998C59.87 52.3898 59.87 53.0198 59.48 53.4098ZM60.18 51.2898C60.96 52.0698 60.96 53.3398 60.18 54.1198C58.91 55.3898 57.57 54.3398 57.35 54.1198L53.59 50.3598L48.02 55.9298C47.9273 56.0223 47.8538 56.1322 47.8036 56.2532C47.7534 56.3742 47.7276 56.5038 47.7276 56.6348C47.7276 56.7658 47.7534 56.8955 47.8036 57.0164C47.8538 57.1374 47.9273 57.2473 48.02 57.3398C48.41 57.7298 49.04 57.7298 49.44 57.3398L54.06 52.7198L54.77 53.4298L50.15 58.0498C50.0573 58.1423 49.9838 58.2522 49.9336 58.3732C49.8834 58.4942 49.8576 58.6238 49.8576 58.7548C49.8576 58.8858 49.8834 59.0155 49.9336 59.1364C49.9838 59.2574 50.0573 59.3673 50.15 59.4598C50.54 59.8498 51.17 59.8498 51.57 59.4598L56.19 54.8398L56.9 55.5498L52.28 60.1698C52.1875 60.2624 52.114 60.3723 52.0639 60.4933C52.0138 60.6142 51.988 60.7439 51.988 60.8748C51.988 61.0057 52.0138 61.1354 52.0639 61.2563C52.114 61.3773 52.1875 61.4872 52.28 61.5798C52.3726 61.6724 52.4825 61.7458 52.6035 61.7959C52.7245 61.846 52.8541 61.8718 52.985 61.8718C53.116 61.8718 53.2456 61.846 53.3666 61.7959C53.4875 61.7458 53.5975 61.6724 53.69 61.5798L58.31 56.9598L59.02 57.6698L54.4 62.2898C54.3075 62.3824 54.234 62.4923 54.1839 62.6133C54.1338 62.7342 54.108 62.8639 54.108 62.9948C54.108 63.1257 54.1338 63.2554 54.1839 63.3764C54.234 63.4973 54.3075 63.6072 54.4 63.6998C54.587 63.8868 54.8406 63.9918 55.105 63.9918C55.236 63.9918 55.3656 63.966 55.4866 63.9159C55.6075 63.8658 55.7175 63.7924 55.81 63.6998L64.13 55.3598C64.6918 54.7973 65.0074 54.0348 65.0074 53.2398C65.0074 52.4448 64.6918 51.6823 64.13 51.1198L59.89 46.8798C59.3379 46.3282 58.5926 46.0135 57.8122 46.0023C57.0318 45.9911 56.2778 46.2843 55.71 46.8198L60.18 51.2898Z" fill="rgb(188.062,51.332,36.0453)" fill-rule="nonzero" />
	</g>
</svg>
