<svg viewBox="0 0 110 110" xmlns="http://www.w3.org/2000/svg"  fill="none" customFrame="#000000">

	<rect id="home" width="110.000000" height="110.000000" x="0.000000" y="0.000000" fill="rgb(31,30,30)" />
	<g id="u:home-alt" clip-path="url(#clipPath_1)" customFrame="url(#clipPath_1)">
		<rect id="u:home-alt" width="24.000000" height="24.000000" x="43.000000" y="43.000000" />
		<path id="Vector" d="M63 51L57 45.74C56.45 45.2481 55.7379 44.9761 55 44.9761C54.2621 44.9761 53.55 45.2481 53 45.74L47 51C46.6824 51.2841 46.4289 51.6326 46.2565 52.0223C46.084 52.4119 45.9966 52.8339 46 53.26L46 62C46 62.7957 46.3161 63.5587 46.8787 64.1213C47.4413 64.6839 48.2044 65 49 65L61 65C61.7957 65 62.5587 64.6839 63.1213 64.1213C63.6839 63.5587 64 62.7957 64 62L64 53.25C64.002 52.8256 63.9139 52.4055 63.7415 52.0177C63.5691 51.6298 63.3164 51.283 63 51ZM57 63L53 63L53 58C53 57.7348 53.1054 57.4804 53.2929 57.2929C53.4804 57.1054 53.7348 57 54 57L56 57C56.2652 57 56.5196 57.1054 56.7071 57.2929C56.8946 57.4804 57 57.7348 57 58L57 63Z" fill="rgb(188.062,51.332,36.0453)" fill-rule="evenodd" />
	</g>
</svg>
