<svg viewBox="0 0 110 110" xmlns="http://www.w3.org/2000/svg" fill="none" customFrame="#000000">

	<rect id="information" width="110.000000" height="110.000000" x="0.000000" y="0.000000" fill="rgb(31,30,30)" />
	<g id="information" clip-path="url(#clipPath_0)" customFrame="url(#clipPath_0)">
		<rect id="information" width="24.000000" height="24.000000" x="43.000000" y="43.000000" />
		<path id="Subtract" d="M55 66C61.0751 66 66 61.0751 66 55C66 48.9249 61.0751 44 55 44C48.9249 44 44 48.9249 44 55C44 61.0751 48.9249 66 55 66ZM56 50.6L56 55C56 55.56 55.56 56 55 56C54.44 56 54 55.56 54 55L54 50.6C54 50.04 54.44 49.6 55 49.6C55.56 49.6 56 50.04 56 50.6ZM56.011 59.4C56.011 58.84 55.571 58.4 55.011 58.4L55 58.4C54.44 58.4 54 58.84 54 59.4C54 59.96 54.44 60.4 55 60.4L55.011 60.4C55.571 60.4 56.011 59.96 56.011 59.4Z" fill="rgb(188.062,51.332,36.0453)" fill-rule="evenodd" />
	</g>
</svg>
