<svg viewBox="0 0 67 40" xmlns="http://www.w3.org/2000/svg" fill="none" customFrame="#000000">
	
	<rect id="link" width="67.000000" height="40.000000" x="0.000000" y="0.000000" />
	<path id="Ellipse 31" d="M33.2914 6.5635C31.9686 5.23513 30.4823 4.12819 28.8325 3.24268C27.1829 2.35727 25.4409 1.73135 23.6064 1.36493C21.7721 0.99853 19.9243 0.907373 18.063 1.09146C16.2017 1.27555 14.407 1.72697 12.679 2.44573C10.9508 3.16456 9.36371 4.11981 7.91767 5.31151C6.47144 6.50336 5.22859 7.88038 4.18911 9.44257C3.14951 11.0049 2.3581 12.6853 1.81488 14.4835C1.27163 16.2819 1 18.1207 1 20C1 21.8793 1.27163 23.7182 1.81488 25.5165C2.3581 27.3147 3.14951 28.9951 4.18912 30.5574C5.2286 32.1196 6.47145 33.4966 7.91767 34.6885C9.3637 35.8802 10.9508 36.8354 12.679 37.5543C14.407 38.273 16.2017 38.7245 18.063 38.9085C19.9242 39.0926 21.7721 39.0015 23.6064 38.6351C25.4409 38.2687 27.1829 37.6427 28.8325 36.7573C30.4823 35.8718 31.9686 34.7649 33.2914 33.4365L34.7086 34.8478C33.246 36.3164 31.6026 37.5404 29.7784 38.5195C27.9539 39.4988 26.0272 40.191 23.9982 40.5963C21.9691 41.0016 19.925 41.1025 17.8661 40.8988C15.8073 40.6952 13.8222 40.1959 11.9109 39.4009C9.99974 38.606 8.24468 37.5496 6.64572 36.2319C5.04693 34.9143 3.67303 33.3922 2.52404 31.6654C1.37516 29.9388 0.500593 28.0819 -0.0996664 26.0949C-0.699888 24.1079 -1 22.0763 -1 20C-1 17.9237 -0.69989 15.8921 -0.0996681 13.9051C0.500592 11.9181 1.37516 10.0612 2.52404 8.33463C3.67304 6.60785 5.04693 5.08567 6.64572 3.76809C8.24469 2.45036 9.99974 1.39404 11.9109 0.599105C13.8222 -0.195889 15.8073 -0.695201 17.8661 -0.89883C19.925 -1.10246 21.9691 -1.00163 23.9982 -0.596327C26.0272 -0.191043 27.9539 0.501226 29.7784 1.48048C31.6026 2.45964 33.246 3.68356 34.7086 5.15224L33.2914 6.5635ZM34.6803 5.15218L34.7086 5.15224C35.1037 5.54904 35.1024 6.1713 34.7056 6.56645C34.3088 6.9616 33.6866 6.9603 33.2914 6.5635L33.2915 6.53521L34.6803 5.15218ZM33.2915 33.4648L33.2914 33.4365C33.6866 33.0397 34.3088 33.0384 34.7056 33.4335C35.1024 33.8287 35.1037 34.451 34.7086 34.8478L34.6803 34.8478L33.2915 33.4648Z" fill="rgb(31,30,30)" fill-rule="nonzero" transform="matrix(-1,-8.74228e-08,8.74228e-08,-1,67,40)" />
	<g id="fi:arrow-right" clip-path="url(#clipPath_0)" customFrame="url(#clipPath_0)">
		<rect id="fi:arrow-right" width="55.000000" height="18.000000" x="0.000000" y="11.000000" />
		<path id="Vector" d="M3.92871 20L51.0716 20" stroke="rgb(31,30,30)" stroke-linecap="round" stroke-linejoin="round" stroke-width="2.000000" />
		<path id="Vector" d="M45.5713 14.75L51.0713 20L45.5713 25.25" fill-rule="nonzero" stroke="rgb(31,30,30)" stroke-linecap="round" stroke-linejoin="round" stroke-width="2.000000" />
	</g>
</svg>
